<?xml version="1.0" encoding="utf-8"?>
<!-- Generator: Adobe Illustrator 28.1.0, SVG Export Plug-In . SVG Version: 6.00 Build 0)  -->
<svg version="1.1" id="Layer_1" xmlns="http://www.w3.org/2000/svg" xmlns:xlink="http://www.w3.org/1999/xlink" x="0px" y="0px"
	 viewBox="0 0 22 22" style="enable-background:new 0 0 22 22;" xml:space="preserve">
<style type="text/css">
	.st0{fill-rule:evenodd;clip-rule:evenodd;fill:#ffffff;}
</style>
<g>
	<path class="st0" d="M9.3,8.2c-0.5,0-0.9,0.2-1.2,0.7l-1.4,2.6V9.2c0-0.7-0.3-1-0.9-1S5,8.4,4.7,8.9l-1.3,2.5V9.2c0-0.7-0.3-1-1-1
		H0.9C0.3,8.2,0,8.4,0,8.9c0,0.5,0.3,0.8,0.9,0.8h0.6v2.9c0,0.8,0.6,1.3,1.3,1.3s1.2-0.3,1.5-1l0.9-1.6v1.4c0,0.8,0.5,1.3,1.3,1.3
		s1.1-0.3,1.6-1l2-3.4C10.5,8.7,10.2,8.2,9.3,8.2C9.3,8.2,9.3,8.2,9.3,8.2z"/>
	<path class="st0" d="M13,8.2c-1.6,0-2.9,1.2-2.9,2.9s1.2,2.8,2.9,2.8s2.9-1.2,2.9-2.8C15.9,9.4,14.6,8.2,13,8.2z M13,12.1
		c-0.6,0-1-0.5-1-1.1c0-0.6,0.4-1.1,1-1.1c0.6,0,1,0.5,1,1.1C14,11.6,13.6,12.1,13,12.1z"/>
	<path class="st0" d="M19.1,8.2c-1.6,0-2.9,1.2-2.9,2.9s1.2,2.8,2.9,2.8S22,12.6,22,11S20.8,8.2,19.1,8.2z M19.1,12.1
		c-0.6,0-1-0.5-1-1.1c0-0.6,0.4-1.1,1-1.1c0.6,0,1,0.5,1,1.1C20.2,11.6,19.8,12.1,19.1,12.1z"/>
</g>
</svg>
