<?xml version="1.0" encoding="utf-8"?>
<!-- Generator: Adobe Illustrator 28.1.0, SVG Export Plug-In . SVG Version: 6.00 Build 0)  -->
<svg version="1.1" id="Layer_1" xmlns="http://www.w3.org/2000/svg" xmlns:xlink="http://www.w3.org/1999/xlink" x="0px" y="0px"
	 viewBox="0 0 22 22" style="enable-background:new 0 0 22 22;" xml:space="preserve">
<style type="text/css">
	.st0{fill:none;stroke:#304050;stroke-width:1.5;stroke-linecap:round;stroke-linejoin:round;}
	.st1{fill:#304050;}
</style>
<line class="st0" x1="17.8" y1="17" x2="17.8" y2="5"/>
<g>
	<path class="st1" d="M5.6,10.9l-1.3-0.2c0.1-0.5,0.4-0.9,0.7-1.1s0.9-0.4,1.5-0.4c0.6,0,1.1,0.1,1.4,0.2C8.3,9.6,8.5,9.8,8.6,10
		c0.1,0.2,0.2,0.6,0.2,1.2l0,1.6c0,0.5,0,0.8,0.1,1c0,0.2,0.1,0.5,0.2,0.7H7.8c0-0.1-0.1-0.2-0.1-0.4c0-0.1,0-0.1,0-0.2
		c-0.2,0.2-0.5,0.4-0.8,0.5c-0.3,0.1-0.6,0.2-0.9,0.2c-0.5,0-1-0.1-1.3-0.4c-0.3-0.3-0.5-0.7-0.5-1.1c0-0.3,0.1-0.6,0.2-0.8
		c0.1-0.2,0.3-0.4,0.6-0.5c0.3-0.1,0.6-0.2,1.1-0.3c0.6-0.1,1.1-0.2,1.3-0.3V11c0-0.3-0.1-0.5-0.2-0.6c-0.1-0.1-0.4-0.2-0.7-0.2
		c-0.2,0-0.4,0-0.6,0.1S5.7,10.7,5.6,10.9z M7.5,12c-0.2,0.1-0.5,0.1-0.8,0.2c-0.4,0.1-0.6,0.2-0.8,0.2c-0.2,0.1-0.3,0.3-0.3,0.5
		c0,0.2,0.1,0.4,0.2,0.5c0.1,0.1,0.3,0.2,0.6,0.2c0.2,0,0.5-0.1,0.7-0.2c0.2-0.1,0.3-0.3,0.3-0.5c0-0.1,0.1-0.3,0.1-0.7V12z"/>
	<path class="st1" d="M10.1,14.5V7.3h1.4v2.6c0.4-0.5,0.9-0.7,1.5-0.7c0.6,0,1.2,0.2,1.6,0.7s0.6,1.1,0.6,2c0,0.9-0.2,1.6-0.6,2.1
		c-0.4,0.5-0.9,0.7-1.5,0.7c-0.3,0-0.6-0.1-0.9-0.2c-0.3-0.1-0.5-0.4-0.7-0.7v0.8H10.1z M11.5,11.8c0,0.5,0.1,0.9,0.3,1.2
		c0.2,0.4,0.6,0.5,1,0.5c0.3,0,0.6-0.1,0.8-0.4s0.3-0.7,0.3-1.2c0-0.6-0.1-1-0.3-1.3c-0.2-0.3-0.5-0.4-0.8-0.4
		c-0.3,0-0.6,0.1-0.8,0.4C11.6,10.9,11.5,11.3,11.5,11.8z"/>
</g>
</svg>
