<?xml version="1.0" encoding="utf-8"?>
<!-- Generator: Adobe Illustrator 28.1.0, SVG Export Plug-In . SVG Version: 6.00 Build 0)  -->
<svg version="1.1" id="th_color" xmlns="http://www.w3.org/2000/svg" xmlns:xlink="http://www.w3.org/1999/xlink" x="0px" y="0px"
	 viewBox="0 0 26 26" style="enable-background:new 0 0 26 26;" xml:space="preserve">
<style type="text/css">
	.st0{fill:none;stroke:#C4D6FF;stroke-width:1.5;stroke-linecap:round;stroke-linejoin:round;}
</style>
<path class="st0" d="M16.6,6.3c-0.8,0-1.5,0.7-1.5,1.5s0.7,1.5,1.5,1.5c0.8,0,1.5-0.7,1.5-1.5S17.4,6.3,16.6,6.3z"/>
<line class="st0" x1="5" y1="7.8" x2="15.1" y2="7.8"/>
<line class="st0" x1="5" y1="13" x2="9.6" y2="13"/>
<path class="st0" d="M16.6,16.7c-0.8,0-1.5,0.7-1.5,1.5s0.7,1.5,1.5,1.5c0.8,0,1.5-0.7,1.5-1.5C18.1,17.3,17.4,16.7,16.6,16.7z"/>
<path class="st0" d="M11.1,11.5c-0.8,0-1.5,0.7-1.5,1.5s0.7,1.5,1.5,1.5s1.5-0.7,1.5-1.5S11.9,11.5,11.1,11.5z"/>
<line class="st0" x1="18.1" y1="7.8" x2="21" y2="7.8"/>
<line class="st0" x1="12.6" y1="13" x2="21" y2="13"/>
<line class="st0" x1="5" y1="18.2" x2="15" y2="18.2"/>
<line class="st0" x1="18" y1="18.2" x2="21" y2="18.2"/>
</svg>
