<?xml version="1.0" encoding="utf-8"?>
<!-- Generator: Adobe Illustrator 28.1.0, SVG Export Plug-In . SVG Version: 6.00 Build 0)  -->
<svg version="1.1" id="th_color" xmlns="http://www.w3.org/2000/svg" xmlns:xlink="http://www.w3.org/1999/xlink" x="0px" y="0px"
	 viewBox="0 0 26 26" style="enable-background:new 0 0 26 26;" xml:space="preserve">
<style type="text/css">
	.st0{fill:#C4D6FF;}
</style>
<g>
	<g>
		<path class="st0" d="M9.5,14.1c-0.2-0.1-0.4-0.2-0.6-0.2c-0.3,0-0.6,0.2-0.8,0.5c-0.1,0.3,0,0.7,0.2,0.9l2.4,2.4
			c0.2,0.2,0.4,0.3,0.6,0.3c0.1,0,0.1,0,0.2,0c0.3-0.1,0.5-0.3,0.6-0.6c0.1-0.3,0-0.6-0.2-0.8L9.5,14.1z"/>
		<path class="st0" d="M11.1,12.5c-0.2-0.2-0.4-0.2-0.6-0.2h0c-0.3,0-0.6,0.2-0.7,0.5c-0.1,0.3,0,0.6,0.2,0.9l2.4,2.4
			c0.2,0.2,0.4,0.2,0.6,0.2c0.2,0,0.4-0.1,0.6-0.2c0.3-0.3,0.3-0.8,0-1.1L11.1,12.5z"/>
	</g>
	<path class="st0" d="M21.8,4.6c-0.1-0.3-0.5-0.5-0.8-0.5c-0.2,0-0.4,0.1-0.5,0.2l-1.5,1.4l-0.2-0.2C18.5,5.2,18,5,17.6,5
		c-0.2,0-0.4,0-0.7,0.1l-2.8,0.4c-1.1,0.2-1.7,0.7-2.5,1.3l-7,6.5c-0.4,0.4-0.5,0.8-0.6,1.4c0,0.6,0.2,1.1,0.6,1.4l5.3,5.3
		c0.3,0.4,0.8,0.6,1.4,0.6c0,0,0,0,0,0c0.5,0,1-0.2,1.4-0.6L13,21l1.7,0.6c0.5,0.2,1,0.2,1.5-0.1c0.5-0.2,0.9-0.6,1-1.1l2.1-6.2
		c0.6-0.7,1.1-1.3,1.2-2.4L21,9c0-0.2,0.1-0.4,0-0.6c0-0.4-0.2-0.9-0.6-1.2l-0.2-0.2l1.5-1.5C21.9,5.2,22,4.9,21.8,4.6z M15.7,19.9
		c0,0-0.1,0.1-0.2,0.2c-0.1,0.1-0.2,0-0.2,0l-1.1-0.4l2.4-2.6L15.7,19.9z M19.4,8.8L19,11.7c-0.1,0.7-0.3,0.9-0.9,1.6l-6.5,7
		c0,0-0.1,0-0.3,0.1c-0.1,0-0.2,0-0.2-0.1l-5.4-5.4c0,0,0-0.1,0-0.2c0-0.1,0-0.2,0.1-0.2l7-6.6c0.6-0.6,0.8-0.7,1.5-0.8l2.8-0.4
		c0.2,0,0.3,0,0.4,0c0,0,0,0,0,0c0,0,0.1,0,0.1,0.1l0.2,0.2l-0.5,0.5c-0.1,0-0.3,0-0.4,0c-0.9,0-1.6,0.7-1.6,1.6s0.7,1.6,1.6,1.6
		s1.6-0.7,1.6-1.6c0-0.1,0-0.3-0.1-0.4l0.5-0.5l0.2,0.2c0.1,0.1,0.1,0.1,0.1,0.1C19.4,8.5,19.4,8.7,19.4,8.8z M17.6,8.9
		c0,0.3-0.3,0.6-0.6,0.6c-0.3,0-0.6-0.3-0.6-0.6c0-0.3,0.3-0.6,0.6-0.6C17.4,8.3,17.6,8.6,17.6,8.9z"/>
</g>
</svg>
