<?xml version="1.0" encoding="utf-8"?>
<!-- Generator: Adobe Illustrator 28.1.0, SVG Export Plug-In . SVG Version: 6.00 Build 0)  -->
<svg version="1.1" id="th_color" xmlns="http://www.w3.org/2000/svg" xmlns:xlink="http://www.w3.org/1999/xlink" x="0px" y="0px"
	 viewBox="0 0 26 26" style="enable-background:new 0 0 26 26;" xml:space="preserve">
<style type="text/css">
	.st0{fill:#FFFFFF;}
</style>
<g>
	<g>
		<path class="st0" d="M8.1,20.1c-0.7,0-1.2-0.1-1.6-0.3c-0.4-0.2-0.8-0.5-1-0.9c-0.2-0.4-0.4-0.8-0.5-1.4c-0.1-0.5-0.2-1.2-0.2-1.9
			c0-0.5-0.1-0.9-0.2-1.2c-0.2-0.3-0.4-0.5-0.7-0.7l-0.1,0c-0.3-0.2-0.4-0.4-0.4-0.6v-0.3c0-0.2,0.1-0.4,0.4-0.6l0.1-0.1
			c0.3-0.2,0.5-0.4,0.7-0.7c0.2-0.3,0.2-0.7,0.2-1.2C4.8,9.6,4.9,9,5,8.4s0.3-1,0.5-1.4c0.2-0.4,0.6-0.7,1-0.8
			c0.4-0.2,1-0.3,1.6-0.3h0.1c0.1,0,0.2,0,0.3,0.1c0.1,0.1,0.1,0.1,0.1,0.2v0.6c0,0.1,0,0.2-0.1,0.2C8.4,7.1,8.3,7.1,8.2,7.1H8.1
			c-0.5,0-0.9,0.1-1.2,0.4C6.7,7.8,6.5,8.1,6.4,8.6c-0.1,0.5-0.1,1.2-0.1,2c0,0.6-0.1,1.1-0.3,1.5C5.8,12.5,5.5,12.8,5,13
			c0.3,0.1,0.5,0.3,0.7,0.5c0.2,0.2,0.3,0.5,0.4,0.8c0.1,0.3,0.1,0.7,0.1,1.1c0,0.8,0,1.5,0.1,2c0.1,0.5,0.3,0.9,0.5,1.1
			c0.3,0.2,0.7,0.4,1.2,0.4h0.1c0.1,0,0.2,0,0.3,0.1c0.1,0.1,0.1,0.1,0.1,0.2v0.6c0,0.1,0,0.2-0.1,0.2C8.4,20.1,8.3,20.1,8.1,20.1
			L8.1,20.1z"/>
	</g>
	<g>
		<path class="st0" d="M17.9,5.9c0.7,0,1.2,0.1,1.6,0.3c0.4,0.2,0.8,0.5,1,0.9c0.2,0.4,0.4,0.8,0.5,1.4c0.1,0.5,0.2,1.2,0.2,1.9
			c0,0.5,0.1,0.9,0.2,1.2c0.2,0.3,0.4,0.5,0.7,0.7l0.1,0c0.3,0.2,0.4,0.4,0.4,0.6v0.3c0,0.2-0.1,0.4-0.4,0.6l-0.1,0.1
			c-0.3,0.2-0.5,0.4-0.7,0.7c-0.2,0.3-0.2,0.7-0.2,1.2c0,0.7-0.1,1.3-0.2,1.9c-0.1,0.5-0.3,1-0.5,1.4c-0.2,0.4-0.6,0.7-1,0.8
			c-0.4,0.2-1,0.3-1.6,0.3h-0.1c-0.1,0-0.2,0-0.3-0.1c-0.1-0.1-0.1-0.1-0.1-0.2v-0.6c0-0.1,0-0.2,0.1-0.2c0.1-0.1,0.2-0.1,0.3-0.1
			h0.1c0.5,0,0.9-0.1,1.2-0.4c0.3-0.2,0.4-0.6,0.5-1.1c0.1-0.5,0.1-1.2,0.1-2c0-0.6,0.1-1.1,0.3-1.5c0.2-0.4,0.5-0.7,0.9-0.9
			c-0.3-0.1-0.5-0.3-0.7-0.5c-0.2-0.2-0.3-0.5-0.4-0.8c-0.1-0.3-0.1-0.7-0.1-1.1c0-0.8,0-1.5-0.1-2c-0.1-0.5-0.3-0.9-0.5-1.1
			s-0.7-0.4-1.2-0.4h-0.1c-0.1,0-0.2,0-0.3-0.1c-0.1-0.1-0.1-0.1-0.1-0.2V6.2c0-0.1,0-0.2,0.1-0.2C17.6,5.9,17.7,5.9,17.9,5.9
			L17.9,5.9z"/>
	</g>
	<g>
		<circle class="st0" cx="10.1" cy="16" r="1.1"/>
		<circle class="st0" cx="13" cy="16" r="1.1"/>
		<circle class="st0" cx="15.9" cy="16" r="1.1"/>
	</g>
</g>
</svg>
