<?xml version="1.0" encoding="utf-8"?>
<!-- Generator: Adobe Illustrator 28.1.0, SVG Export Plug-In . SVG Version: 6.00 Build 0)  -->
<svg version="1.1" id="th_color" xmlns="http://www.w3.org/2000/svg" xmlns:xlink="http://www.w3.org/1999/xlink" x="0px" y="0px"
	 viewBox="0 0 26 26" style="enable-background:new 0 0 26 26;" xml:space="preserve">
<style type="text/css">
	.st0{fill:none;stroke:#FFFFFF;stroke-width:1.5;stroke-linecap:round;stroke-linejoin:round;}
	.st1{fill:#FFFFFF;}
</style>
<path class="st0" d="M6.9,6h4c0.5,0,0.9,0.5,0.9,0.9v12.1c0,0.5-0.5,0.9-0.9,0.9h-4C6.5,20,6,19.5,6,19.1V6.9C6,6.5,6.5,6,6.9,6z"/>
<path class="st0" d="M16.5,14.2h2.6c0.5,0,0.9,0.5,0.9,0.9v4c0,0.5-0.5,0.9-0.9,0.9H8.3"/>
<path class="st0" d="M12.1,10l2.8-2.8c0.4-0.4,0.9-0.4,1.3,0L19,10c0.3,0.4,0.3,0.9,0,1.3l-6.9,6.9"/>
<path class="st1" d="M9,16.4c-0.5,0-0.9,0.3-0.9,0.9c0,0.5,0.4,0.9,0.9,0.9c0.5,0,0.9-0.4,0.9-0.9C10,16.7,9.5,16.4,9,16.4z"/>
</svg>
