<?xml version="1.0" encoding="utf-8"?>
<!-- Generator: Adobe Illustrator 28.1.0, SVG Export Plug-In . SVG Version: 6.00 Build 0)  -->
<svg version="1.1" id="th_color" xmlns="http://www.w3.org/2000/svg" xmlns:xlink="http://www.w3.org/1999/xlink" x="0px" y="0px"
	 viewBox="0 0 26 26" style="enable-background:new 0 0 26 26;" xml:space="preserve">
<style type="text/css">
	.st0{fill:none;stroke:#304050;stroke-width:1.5;stroke-linecap:round;stroke-linejoin:round;}
	.st1{fill:#304050;}
</style>
<path class="st0" d="M21,17.1c0,1,0,2.1,0,3.1c0,0.1,0,0.3-0.2,0.5c-0.1,0.1-0.4,0.2-0.5,0.2H5.8C5.4,21,5,20.6,5,20.2
	C5,19,5,18.1,5,17"/>
<path class="st0" d="M5,8.7c0-1.5,0-1.5,0-2.9C5,5.7,5,5,5.8,5h14.4C20.6,5,21,5.4,21,5.8c0,1,0,2,0,2.9"/>
<g>
	<path class="st1" d="M4.2,10.9v1.1H3v3.2H1.7v-3.2H0.6v-1.1H4.2z"/>
	<path class="st1" d="M7.2,15.1L6.4,14l-0.6,1.1H4.3l1.4-2.2l-1.5-2.1h1.6l0.8,1.1l0.6-1.1h1.5L7.3,13l1.5,2.1H7.2z"/>
	<path class="st1" d="M12.4,10.9v1.1h-1.1v3.2H10v-3.2H8.9v-1.1H12.4z"/>
	<path class="st1" d="M17.1,10.9v1.1H16v3.2h-1.3v-3.2h-1.1v-1.1H17.1z"/>
	<path class="st1" d="M20.2,15.1L19.4,14l-0.6,1.1h-1.5l1.4-2.2l-1.5-2.1h1.6l0.8,1.1l0.6-1.1h1.5L20.3,13l1.5,2.1H20.2z"/>
	<path class="st1" d="M25.4,10.9v1.1h-1.1v3.2H23v-3.2h-1.1v-1.1H25.4z"/>
</g>
</svg>
