<?xml version="1.0" encoding="utf-8"?>
<!-- Generator: Adobe Illustrator 28.1.0, SVG Export Plug-In . SVG Version: 6.00 Build 0)  -->
<svg version="1.1" id="Layer_1" xmlns="http://www.w3.org/2000/svg" xmlns:xlink="http://www.w3.org/1999/xlink" x="0px" y="0px"
	 viewBox="0 0 150 120" style="enable-background:new 0 0 150 120;" xml:space="preserve">
<style type="text/css">
	.st0{opacity:0.7;fill:#7D818E;enable-background:new    ;}
	.st1{opacity:0.2;fill:none;stroke:#304050;stroke-linecap:round;stroke-linejoin:round;enable-background:new    ;}
</style>
<path class="st0" d="M13,10h36c1.7,0,3,1.3,3,3v39c0,1.7-1.3,3-3,3H13c-1.7,0-3-1.3-3-3V13C10,11.3,11.3,10,13,10z"/>
<path class="st0" d="M59.2,36h43.4c0.8,0,1.5,0.7,1.5,1.5l0,0c0,0.8-0.7,1.5-1.5,1.5H59.2c-0.8,0-1.5-0.7-1.5-1.5l0,0
	C57.7,36.7,58.3,36,59.2,36z"/>
<path class="st0" d="M59.2,43h32.9c0.8,0,1.5,0.7,1.5,1.5l0,0c0,0.8-0.7,1.5-1.5,1.5H59.2c-0.8,0-1.5-0.7-1.5-1.5l0,0
	C57.7,43.7,58.3,43,59.2,43z"/>
<path class="st0" d="M59.2,17.6H87c0.8,0,1.5,0.7,1.5,1.5l0,0c0,0.8-0.7,1.5-1.5,1.5H59.2c-0.8,0-1.5-0.7-1.5-1.5l0,0
	C57.7,18.2,58.3,17.6,59.2,17.6z"/>
<path class="st0" d="M119.9,27.8h16.9c1.6,0,2.9,1.3,2.9,2.8v0.6c0,1.6-1.3,2.8-2.9,2.8h-16.9c-1.6,0-2.9-1.3-2.9-2.8v-0.6
	C117,29.1,118.3,27.8,119.9,27.8z"/>
<path class="st0" d="M59.2,29.4h43.4c0.8,0,1.5,0.7,1.5,1.5l0,0c0,0.8-0.7,1.5-1.5,1.5H59.2c-0.8,0-1.5-0.7-1.5-1.5l0,0
	C57.7,30.1,58.3,29.4,59.2,29.4z"/>
<path class="st0" d="M118.5,17.6h10.7c0.8,0,1.5,0.7,1.5,1.5l0,0c0,0.8-0.7,1.5-1.5,1.5h-10.7c-0.8,0-1.5-0.7-1.5-1.5l0,0
	C117,18.2,117.7,17.6,118.5,17.6z"/>
<path class="st0" d="M118.5,37.5h7.4c0.8,0,1.5,0.7,1.5,1.5l0,0c0,0.8-0.7,1.5-1.5,1.5h-7.4c-0.8,0-1.5-0.7-1.5-1.5l0,0
	C117,38.2,117.7,37.5,118.5,37.5z"/>
<line class="st1" x1="110.5" y1="14.1" x2="110.5" y2="50.9"/>
<path class="st0" d="M13.2,64.2h36c1.7,0,3,1.3,3,3v39c0,1.7-1.3,3-3,3h-36c-1.7,0-3-1.3-3-3v-39C10.2,65.6,11.5,64.2,13.2,64.2z"/>
<path class="st0" d="M59.3,90.3h43.4c0.8,0,1.5,0.7,1.5,1.5l0,0c0,0.8-0.7,1.5-1.5,1.5H59.3c-0.8,0-1.5-0.7-1.5-1.5l0,0
	C57.8,90.9,58.5,90.3,59.3,90.3z"/>
<path class="st0" d="M59.3,97.3h32.9c0.8,0,1.5,0.7,1.5,1.5l0,0c0,0.8-0.7,1.5-1.5,1.5H59.3c-0.8,0-1.5-0.7-1.5-1.5l0,0
	C57.8,97.9,58.5,97.3,59.3,97.3z"/>
<path class="st0" d="M59.3,71.8h27.8c0.8,0,1.5,0.7,1.5,1.5l0,0c0,0.8-0.7,1.5-1.5,1.5H59.3c-0.8,0-1.5-0.7-1.5-1.5l0,0
	C57.8,72.5,58.5,71.8,59.3,71.8z"/>
<path class="st0" d="M120,82.1H137c1.6,0,2.9,1.3,2.9,2.8v0.6c0,1.6-1.3,2.8-2.9,2.8H120c-1.6,0-2.9-1.3-2.9-2.8v-0.6
	C117.2,83.3,118.4,82.1,120,82.1z"/>
<path class="st0" d="M59.3,83.7h43.4c0.8,0,1.5,0.7,1.5,1.5l0,0c0,0.8-0.7,1.5-1.5,1.5H59.3c-0.8,0-1.5-0.7-1.5-1.5l0,0
	C57.8,84.4,58.5,83.7,59.3,83.7z"/>
<path class="st0" d="M118.7,71.8h10.7c0.8,0,1.5,0.7,1.5,1.5l0,0c0,0.8-0.7,1.5-1.5,1.5h-10.7c-0.8,0-1.5-0.7-1.5-1.5l0,0
	C117.2,72.5,117.8,71.8,118.7,71.8z"/>
<path class="st0" d="M118.7,91.8h7.4c0.8,0,1.5,0.7,1.5,1.5l0,0c0,0.8-0.7,1.5-1.5,1.5h-7.4c-0.8,0-1.5-0.7-1.5-1.5l0,0
	C117.2,92.4,117.8,91.8,118.7,91.8z"/>
<line class="st1" x1="110.7" y1="68.3" x2="110.7" y2="105.2"/>
</svg>
