<?xml version="1.0" encoding="utf-8"?>
<!-- Generator: Adobe Illustrator 28.1.0, SVG Export Plug-In . SVG Version: 6.00 Build 0)  -->
<svg version="1.1" id="Layer_1" xmlns="http://www.w3.org/2000/svg" xmlns:xlink="http://www.w3.org/1999/xlink" x="0px" y="0px"
	 viewBox="0 0 150 120" style="enable-background:new 0 0 150 120;" xml:space="preserve">
<style type="text/css">
	.st0{opacity:0.7;fill:none;stroke:#7D818E;stroke-width:3;stroke-linecap:round;stroke-linejoin:round;enable-background:new    ;}
	.st1{fill-rule:evenodd;clip-rule:evenodd;fill:#873EFF;}
</style>
<path class="st0" d="M124,47.1V28.8H25.6V108H124c0-9.9,0-9.9,0-9.9"/>
<polyline class="st0" points="25.6,28.8 25.6,12 124,12 124,28.8 "/>
<line class="st0" x1="25.6" y1="68.4" x2="47.9" y2="68.4"/>
<g>
	<path class="st1" d="M100.1,62.1c-2,0-3.3,0.7-4.5,2.9l-5.3,10.1v-8.9c0-2.7-1.3-4-3.6-4s-3.3,0.8-4.5,3l-5.1,9.9v-8.9
		c0-2.9-1.2-4.1-4-4.1h-5.8c-2.2,0-3.4,1-3.4,2.9c0,1.9,1.2,3,3.3,3h2.4v11.3c0,3.2,2.2,5.1,5.2,5.1c3.1,0,4.5-1.2,6-4.1l3.4-6.3
		v5.3c0,3.1,2.1,5.1,5.2,5.1s4.3-1.1,6.1-4.1l7.8-13.1C105,64.3,103.8,62.1,100.1,62.1C100.1,62.1,100.1,62.1,100.1,62.1z"/>
	<path class="st1" d="M114.7,62.1c-6.4,0-11.2,4.7-11.2,11.1c0,6.4,4.9,11.1,11.2,11.1s11.1-4.7,11.2-11.1
		C125.9,66.9,121.1,62.1,114.7,62.1z M114.7,77.5c-2.4,0-4-1.8-4-4.3c0-2.5,1.6-4.3,4-4.3s4,1.8,4,4.3
		C118.8,75.8,117.2,77.5,114.7,77.5z"/>
	<path class="st1" d="M138.7,62.1c-6.3,0-11.2,4.7-11.2,11.1c0,6.4,4.9,11.1,11.2,11.1c6.3,0,11.2-4.7,11.2-11.1
		C149.9,66.9,145,62.1,138.7,62.1z M138.7,77.5c-2.4,0-4-1.8-4-4.3c0-2.5,1.6-4.3,4-4.3c2.4,0,4,1.8,4,4.3
		C142.7,75.8,141.1,77.5,138.7,77.5z"/>
</g>
</svg>
